<svg width="27" height="43" viewBox="0 0 27 43" fill="none" xmlns="http://www.w3.org/2000/svg">
<path d="M8.59911 29.3051V28.6236C8.61247 26.2851 8.81959 24.4209 9.22048 23.0312C9.63474 21.6414 10.2361 20.5189 11.0245 19.6637C11.8129 18.8085 12.7617 18.0334 13.8708 17.3385C14.6993 16.804 15.441 16.2494 16.0958 15.6748C16.7505 15.1002 17.2717 14.4655 17.6592 13.7706C18.0468 13.0624 18.2405 12.2739 18.2405 11.4053C18.2405 10.4833 18.02 9.67483 17.5791 8.97995C17.1381 8.28507 16.5434 7.75055 15.7951 7.37639C15.0601 7.00222 14.245 6.81514 13.3497 6.81514C12.4811 6.81514 11.6592 7.0089 10.8842 7.39643C10.1091 7.7706 9.47438 8.33184 8.97995 9.08017C8.48552 9.81514 8.21826 10.7305 8.17817 11.8263H0C0.066815 9.15367 0.70824 6.94877 1.92428 5.21158C3.14031 3.46102 4.75055 2.15813 6.75501 1.30289C8.75946 0.434298 10.971 0 13.3897 0C16.049 0 18.4009 0.44098 20.4454 1.32294C22.49 2.19154 24.0935 3.45434 25.2561 5.11136C26.4187 6.76837 27 8.76614 27 11.1047C27 12.6681 26.7394 14.0579 26.2183 15.2739C25.7105 16.4766 24.9955 17.5456 24.0735 18.4811C23.1514 19.4031 22.0624 20.2383 20.8062 20.9866C19.7505 21.6147 18.8819 22.2695 18.2004 22.951C17.5323 23.6325 17.0312 24.4209 16.6971 25.3162C16.3764 26.2116 16.2093 27.314 16.196 28.6236V29.3051H8.59911ZM12.5679 42.1336C11.2316 42.1336 10.0891 41.6659 9.14031 40.7305C8.2049 39.7817 7.74387 38.6459 7.75723 37.3229C7.74387 36.0133 8.2049 34.8909 9.14031 33.9554C10.0891 33.02 11.2316 32.5523 12.5679 32.5523C13.8374 32.5523 14.9532 33.02 15.9154 33.9554C16.8775 34.8909 17.3652 36.0133 17.3786 37.3229C17.3652 38.2049 17.1314 39.0133 16.6771 39.7483C16.2361 40.4699 15.6548 41.0512 14.9332 41.4922C14.2116 41.9198 13.4232 42.1336 12.5679 42.1336Z" fill="white"/>
</svg>
