<svg width="67" height="104" viewBox="0 0 67 104" fill="none" xmlns="http://www.w3.org/2000/svg">
<path d="M21.2255 72.3349V70.6527C21.2585 64.8804 21.7697 60.2791 22.7593 56.8487C23.7818 53.4183 25.2661 50.6476 27.2122 48.5366C29.1582 46.4256 31.5001 44.5125 34.2378 42.7973C36.2829 41.4779 38.1135 40.1091 39.7298 38.6907C41.346 37.2724 42.6324 35.7057 43.5889 33.9905C44.5455 32.2423 45.0238 30.2962 45.0238 28.1522C45.0238 25.8763 44.4795 23.8807 43.391 22.1655C42.3025 20.4504 40.8347 19.131 38.9876 18.2074C37.1735 17.2838 35.1614 16.8221 32.9515 16.8221C30.8075 16.8221 28.7789 17.3003 26.8658 18.2569C24.9527 19.1805 23.386 20.5658 22.1655 22.4129C20.9451 24.2271 20.2854 26.4865 20.1865 29.1912H0C0.164922 22.5943 1.74818 17.1519 4.74976 12.8639C7.75134 8.54297 11.726 5.32699 16.6736 3.21598C21.6213 1.07199 27.0802 0 33.0504 0C39.6143 0 45.4196 1.08849 50.4662 3.26546C55.5128 5.40945 59.4709 8.52648 62.3406 12.6166C65.2102 16.7066 66.6451 21.6378 66.6451 27.4101C66.6451 31.2692 66.0019 34.6996 64.7155 37.7012C63.4621 40.6698 61.6974 43.3086 59.4215 45.6175C57.1455 47.8934 54.4573 49.9549 51.3568 51.8021C48.751 53.3523 46.607 54.9686 44.9248 56.6508C43.2756 58.333 42.0387 60.2791 41.2141 62.489C40.4224 64.699 40.0101 67.4202 39.9771 70.6527V72.3349H21.2255ZM31.0219 104C27.7234 104 24.9033 102.845 22.5614 100.537C20.2524 98.1947 19.1145 95.391 19.1475 92.1255C19.1145 88.8931 20.2524 86.1224 22.5614 83.8135C24.9033 81.5046 27.7234 80.3501 31.0219 80.3501C34.1554 80.3501 36.9096 81.5046 39.2845 83.8135C41.6593 86.1224 42.8633 88.8931 42.8963 92.1255C42.8633 94.3025 42.2861 96.2981 41.1646 98.1122C40.0761 99.8934 38.6413 101.328 36.8601 102.417C35.079 103.472 33.1329 104 31.0219 104Z" fill="white"/>
</svg>
